<?xml version="1.0" standalone="no"?>
<!DOCTYPE svg PUBLIC "-//W3C//DTD SVG 20010904//EN"
 "http://www.w3.org/TR/2001/REC-SVG-20010904/DTD/svg10.dtd">
<svg version="1.0" xmlns="http://www.w3.org/2000/svg"
 width="804.000000pt" height="804.000000pt" viewBox="0 0 804.000000 804.000000"
 preserveAspectRatio="xMidYMid meet">
<metadata>
Created by potrace 1.11, written by Peter Selinger 2001-2013
</metadata>
<g transform="translate(0.000000,804.000000) scale(0.100000,-0.100000)"
fill="#000000" stroke="none">
<path d="M3618 7086 c3 -5 -2 -7 -11 -3 -10 4 -20 0 -26 -11 -6 -9 -11 -12
-11 -7 0 6 -5 3 -10 -5 -6 -10 -10 -11 -10 -2 0 6 -5 12 -11 12 -5 0 -8 -4 -5
-9 6 -9 -11 -20 -26 -17 -4 0 -14 -8 -22 -19 -9 -12 -15 -15 -16 -7 0 8 -8 6
-22 -8 -16 -15 -24 -17 -30 -8 -5 9 -8 7 -8 -6 0 -12 -5 -16 -16 -12 -8 3 -13
2 -10 -2 2 -4 -9 -15 -25 -25 -17 -9 -27 -12 -24 -7 3 6 1 10 -4 10 -6 0 -11
-4 -11 -10 0 -5 -7 -10 -15 -10 -8 0 -15 -3 -15 -8 0 -4 -9 -13 -21 -20 -14
-9 -19 -10 -14 -2 4 7 -4 5 -17 -4 -14 -9 -27 -13 -31 -10 -3 3 -11 -3 -18
-14 -7 -11 -18 -18 -26 -15 -7 3 -16 -2 -19 -11 -3 -9 -10 -14 -14 -11 -5 3
-11 1 -15 -5 -4 -6 -11 -7 -17 -4 -7 5 -9 1 -5 -9 5 -13 2 -15 -18 -7 -19 7
-23 6 -18 -6 3 -9 0 -14 -8 -12 -8 2 -13 -2 -12 -8 1 -6 -4 -11 -12 -11 -8 0
-11 5 -8 11 4 6 -3 3 -14 -6 -11 -10 -25 -18 -31 -18 -7 0 -12 -5 -12 -11 0
-5 -4 -7 -10 -4 -5 3 -10 1 -10 -5 0 -6 -5 -8 -10 -5 -6 3 -13 -1 -16 -10 -5
-12 -9 -13 -21 -4 -11 10 -13 9 -11 -2 2 -8 -3 -13 -10 -11 -7 1 -15 -5 -18
-13 -4 -8 -10 -15 -16 -15 -5 0 -6 6 -3 13 4 6 1 5 -7 -4 -13 -16 -17 -18 -50
-27 -10 -2 -18 -9 -18 -14 0 -5 -4 -6 -10 -3 -5 3 -10 2 -10 -4 0 -6 -8 -7
-17 -4 -12 5 -15 2 -10 -9 4 -11 0 -15 -11 -13 -9 1 -20 -2 -23 -7 -3 -5 -16
-11 -29 -13 -13 -2 -28 -10 -34 -16 -8 -9 -7 -10 3 -4 9 5 12 4 7 -3 -5 -9
-13 -9 -26 -2 -16 9 -18 8 -14 -5 4 -9 3 -15 -2 -14 -20 3 -35 -2 -29 -10 3
-6 -6 -8 -21 -5 -20 4 -25 1 -21 -9 3 -7 -1 -14 -9 -15 -8 -1 -21 -3 -29 -4
-8 -1 -15 -5 -15 -10 0 -4 -9 -8 -21 -8 -13 0 -18 -4 -13 -12 5 -8 2 -9 -10
-5 -10 4 -19 1 -22 -7 -3 -8 -17 -17 -32 -21 -15 -4 -29 -11 -33 -16 -3 -6
-16 -11 -27 -12 -12 -1 -22 -8 -22 -15 0 -12 -3 -12 -17 -1 -14 12 -16 12 -8
0 6 -10 4 -13 -6 -9 -17 7 -62 -26 -51 -37 4 -3 2 -5 -3 -4 -16 5 -56 -12 -50
-20 2 -5 -7 -7 -20 -5 -14 1 -25 -2 -25 -7 0 -5 -9 -9 -19 -9 -10 0 -22 -7
-25 -16 -4 -9 -9 -14 -13 -11 -3 4 -12 -1 -19 -11 -9 -11 -13 -13 -14 -4 0 7
-5 10 -10 7 -6 -4 -7 -11 -4 -17 5 -7 2 -9 -7 -6 -9 3 -26 -3 -40 -13 -13 -10
-32 -19 -42 -19 -10 0 -20 -7 -23 -15 -4 -8 -10 -13 -14 -10 -5 3 -16 2 -25
-1 -13 -6 -14 -9 -3 -16 9 -7 6 -8 -10 -5 -12 3 -28 -1 -35 -8 -7 -7 -23 -16
-35 -19 -12 -4 -20 -12 -17 -17 3 -5 -2 -6 -11 -2 -12 4 -15 3 -10 -5 5 -8 2
-10 -8 -6 -9 3 -16 1 -16 -6 0 -6 -4 -8 -10 -5 -5 3 -10 1 -10 -5 0 -6 -5 -8
-12 -4 -6 4 -17 -1 -25 -11 -7 -11 -13 -15 -13 -11 0 5 -7 3 -15 -4 -8 -6 -20
-8 -26 -4 -7 4 -9 3 -6 -2 8 -13 -23 -32 -46 -28 -9 1 -15 -2 -11 -7 3 -5 0
-9 -6 -9 -6 0 -9 -4 -6 -8 3 -5 -1 -9 -9 -9 -8 0 -12 5 -9 11 3 6 0 4 -8 -5
-7 -9 -21 -15 -30 -13 -12 1 -15 -4 -13 -18 4 -16 2 -18 -10 -8 -11 10 -15 10
-15 1 0 -7 -4 -10 -9 -7 -4 3 -19 -3 -31 -14 -12 -11 -27 -17 -31 -14 -5 3 -9
0 -9 -6 0 -6 -4 -8 -10 -5 -5 3 -10 1 -10 -5 0 -6 -4 -8 -10 -5 -5 3 -10 1
-10 -5 0 -6 -4 -8 -10 -5 -5 3 -10 1 -10 -4 0 -6 -6 -10 -12 -9 -7 2 -12 -4
-10 -12 3 -12 1 -13 -10 -2 -10 10 -16 8 -31 -10 -10 -13 -15 -16 -11 -8 6 12
5 13 -8 3 -8 -7 -19 -9 -23 -5 -5 4 -5 1 -1 -5 6 -12 -5 -18 -26 -14 -5 0 -8
-3 -8 -8 0 -5 -11 -12 -25 -15 -14 -4 -23 -11 -20 -16 3 -6 -1 -7 -9 -4 -9 3
-16 1 -16 -5 0 -6 -3 -10 -7 -9 -15 4 -53 -14 -48 -22 3 -5 0 -12 -6 -16 -8
-5 -9 -3 -4 6 6 10 4 12 -9 7 -10 -4 -22 -7 -27 -7 -6 0 -7 -4 -4 -10 5 -9
-15 -15 -37 -11 -5 0 -8 -4 -8 -10 0 -5 -4 -7 -10 -4 -5 3 -10 0 -10 -8 0 -8
-7 -18 -16 -21 -15 -6 -15 -4 -3 11 13 17 13 17 -7 0 -11 -9 -24 -14 -27 -10
-4 3 -7 -2 -7 -13 0 -16 -2 -16 -10 -4 -8 12 -10 12 -16 -3 -3 -9 -10 -14 -15
-12 -4 3 -17 -3 -28 -14 -11 -11 -22 -17 -25 -13 -4 3 -13 -3 -21 -14 -8 -11
-15 -14 -15 -6 0 6 -5 12 -11 12 -5 0 -8 -4 -4 -9 3 -5 -13 -17 -34 -27 -23
-10 -37 -22 -34 -28 4 -6 0 -6 -8 1 -12 10 -20 8 -41 -12 -18 -17 -28 -21 -31
-12 -3 7 -6 5 -6 -5 -1 -11 -8 -16 -21 -13 -11 2 -25 -4 -32 -13 -7 -9 -22
-18 -32 -20 -10 -2 -25 -10 -33 -18 -14 -13 -28 -18 -45 -15 -5 0 -8 -4 -8
-10 0 -6 -7 -8 -16 -5 -8 3 -12 2 -9 -4 5 -9 -15 -15 -37 -11 -5 0 -7 -5 -5
-12 1 -6 -4 -11 -10 -10 -7 2 -13 -3 -13 -10 0 -8 -4 -7 -10 3 -8 13 -10 13
-10 -2 0 -11 -6 -16 -20 -13 -11 2 -19 -1 -17 -8 1 -7 -4 -11 -12 -9 -7 1 -19
-5 -27 -15 -7 -10 -14 -14 -14 -9 0 5 -10 1 -22 -10 -14 -13 -19 -14 -14 -4 4
8 -5 2 -19 -15 -15 -16 -24 -23 -20 -15 3 8 0 6 -9 -4 -8 -10 -13 -23 -10 -28
3 -5 2 -8 -3 -7 -18 3 -36 -1 -30 -8 4 -3 -1 -15 -10 -26 -10 -11 -12 -17 -5
-13 16 10 15 -2 -2 -19 -7 -8 -17 -11 -22 -7 -5 4 -2 -1 5 -10 7 -10 9 -18 4
-18 -15 0 -13 -588 2 -603 6 -7 10 -17 8 -23 -2 -7 3 -19 12 -27 8 -9 15 -20
15 -26 0 -6 9 -16 20 -23 11 -7 20 -18 20 -25 0 -6 11 -10 26 -8 18 2 24 -1
20 -12 -4 -9 -1 -13 6 -10 7 2 19 -3 26 -12 8 -9 11 -10 7 -4 -9 18 26 4 42
-16 7 -9 13 -11 13 -6 0 6 4 4 9 -3 4 -7 17 -14 29 -15 11 0 18 -5 16 -9 -3
-4 1 -8 10 -8 8 0 16 -4 18 -10 1 -5 14 -11 28 -14 14 -2 24 -8 23 -14 -1 -5
7 -8 17 -5 11 3 20 0 20 -6 0 -6 7 -11 15 -11 8 0 15 -5 15 -12 0 -6 3 -9 6
-5 7 7 60 -18 88 -42 11 -9 16 -10 12 -4 -5 9 -2 11 8 7 8 -3 17 -12 20 -20 3
-7 12 -11 21 -8 8 4 17 0 21 -9 3 -9 14 -14 25 -12 11 2 17 0 14 -6 -4 -5 1
-9 9 -9 9 0 16 -5 16 -11 0 -5 4 -8 9 -4 5 3 12 1 16 -5 4 -6 10 -8 15 -5 5 3
15 -3 22 -14 10 -16 15 -18 27 -8 12 9 13 9 7 0 -4 -8 -2 -13 4 -13 6 0 18 -7
27 -15 8 -8 19 -13 24 -10 5 4 9 1 9 -5 0 -6 4 -9 9 -5 6 3 20 -5 32 -17 12
-13 18 -16 14 -8 -5 8 -4 11 0 7 12 -11 15 -38 3 -31 -5 3 -17 -1 -26 -8 -29
-25 -46 -33 -37 -17 4 8 -2 3 -15 -9 -18 -19 -24 -21 -31 -10 -7 10 -9 9 -9
-5 0 -11 -10 -20 -30 -23 -16 -4 -30 -11 -30 -16 0 -5 -5 -6 -10 -3 -6 3 -10
2 -10 -2 0 -9 -59 -37 -72 -34 -5 0 -8 -4 -8 -10 0 -5 -5 -7 -10 -4 -6 3 -13
0 -16 -9 -3 -8 -12 -12 -20 -9 -8 3 -14 0 -14 -6 0 -6 -9 -11 -20 -11 -11 0
-23 -6 -26 -14 -3 -8 -15 -13 -26 -11 -14 3 -18 0 -14 -11 3 -8 2 -13 -3 -10
-10 7 -61 -16 -61 -28 0 -5 -7 -3 -15 4 -13 11 -14 10 -9 -5 5 -13 4 -16 -4
-11 -7 4 -19 0 -28 -9 -9 -9 -23 -14 -30 -11 -8 3 -11 0 -8 -9 4 -10 0 -12
-15 -8 -13 3 -23 0 -27 -10 -3 -9 -12 -13 -20 -10 -8 3 -14 0 -14 -6 0 -6 -7
-11 -16 -11 -8 0 -13 -4 -9 -9 3 -6 -3 -8 -14 -6 -11 2 -22 -3 -25 -11 -3 -9
-10 -12 -16 -9 -5 3 -10 1 -10 -5 0 -7 -7 -10 -15 -6 -10 4 -15 -1 -15 -15 0
-11 -4 -18 -9 -15 -4 3 -16 -10 -27 -29 -10 -18 -22 -31 -28 -28 -5 4 -7 -1
-3 -10 3 -9 2 -17 -3 -19 -5 -2 -11 -13 -13 -25 -2 -12 -6 -25 -10 -29 -3 -4
-1 -16 5 -27 9 -17 8 -19 -7 -13 -15 5 -16 4 -5 -9 7 -8 9 -15 6 -15 -4 0 -2
-9 4 -19 8 -16 6 -22 -7 -30 -11 -6 -13 -11 -5 -11 15 0 13 -41 -3 -52 -6 -5
-5 -8 3 -8 7 0 10 -5 7 -10 -3 -5 0 -10 7 -10 9 0 9 -3 -2 -10 -13 -8 -13 -10
-1 -10 11 0 10 -4 -5 -16 -10 -8 -13 -12 -6 -9 10 5 13 1 10 -16 -2 -13 -7
-27 -13 -31 -6 -5 -5 -8 3 -8 7 0 10 -5 7 -10 -3 -5 0 -10 7 -10 9 0 9 -3 -2
-10 -13 -8 -13 -10 -1 -10 11 0 10 -4 -5 -16 -10 -8 -13 -12 -6 -9 10 5 13 1
10 -16 -2 -13 -7 -27 -13 -31 -6 -5 -5 -8 3 -8 7 0 10 -4 7 -10 -3 -6 0 -10 7
-10 9 0 9 -3 -2 -10 -13 -8 -13 -10 -1 -10 11 0 10 -4 -5 -16 -10 -8 -14 -13
-8 -10 7 3 15 -1 18 -10 3 -8 2 -12 -3 -9 -8 4 -8 -43 0 -52 1 -2 2 -12 3 -22
0 -11 5 -23 10 -28 5 -5 6 -2 1 6 -6 10 -4 12 4 7 9 -6 9 -11 -1 -24 -7 -9 -8
-13 -3 -10 6 3 16 0 23 -8 7 -8 8 -14 2 -14 -5 0 -1 -9 10 -20 11 -11 20 -25
20 -31 0 -5 4 -8 9 -5 5 3 20 -3 34 -14 14 -11 32 -20 40 -20 9 0 17 -5 19
-10 2 -6 13 -12 26 -13 13 -1 21 -6 18 -13 -3 -7 3 -10 15 -7 10 3 19 0 19 -6
0 -6 9 -11 20 -11 12 0 20 -7 21 -17 0 -12 2 -13 6 -5 4 10 9 9 20 -5 8 -10
12 -13 9 -6 -5 8 0 8 19 0 14 -7 25 -15 25 -19 0 -5 7 -8 16 -8 9 0 12 -5 8
-12 -5 -8 0 -7 11 2 10 8 16 10 12 4 -6 -10 14 -22 48 -28 6 -1 9 -8 7 -15 -1
-7 1 -10 6 -7 5 3 21 -2 36 -10 16 -7 35 -14 43 -14 8 0 11 -5 7 -12 -5 -8 -2
-9 9 -5 12 4 17 1 18 -11 0 -10 3 -12 6 -5 3 9 11 6 26 -8 12 -11 27 -17 35
-14 7 2 15 -2 18 -10 4 -8 15 -15 26 -15 10 0 16 -4 13 -10 -3 -5 0 -7 8 -4 8
3 18 0 22 -5 3 -6 11 -9 16 -6 5 4 9 -1 9 -9 0 -8 6 -13 13 -10 7 2 23 -5 35
-16 12 -11 22 -16 22 -9 0 6 9 1 21 -12 11 -13 18 -18 14 -11 -3 6 -1 12 4 12
6 0 11 -4 11 -10 0 -5 7 -10 16 -10 9 0 12 -5 8 -12 -4 -6 -3 -8 4 -4 6 3 17
0 25 -8 11 -11 17 -12 27 -3 10 9 11 9 6 0 -4 -8 -1 -13 9 -13 8 0 18 -7 21
-15 4 -8 10 -12 15 -9 5 3 9 0 9 -5 0 -6 5 -11 11 -11 5 0 7 6 4 12 -4 7 1 4
9 -6 9 -11 16 -16 16 -11 0 5 7 0 16 -11 8 -10 13 -13 9 -7 -4 9 -1 11 9 7 9
-3 13 -11 10 -16 -4 -6 2 -7 16 -3 14 5 20 3 16 -3 -3 -6 9 -16 29 -22 19 -6
39 -19 45 -28 6 -11 9 -12 10 -4 0 7 5 10 10 7 6 -4 8 -10 5 -15 -3 -4 5 -6
17 -2 14 3 19 2 14 -6 -5 -8 2 -12 19 -12 14 0 28 -7 32 -16 5 -13 7 -13 14
-2 7 10 9 9 9 -5 0 -10 5 -15 10 -12 5 3 10 2 10 -4 0 -5 14 -12 30 -16 17 -4
30 -11 30 -16 0 -6 5 -7 10 -4 6 3 10 2 10 -4 0 -6 7 -7 17 -4 12 5 14 3 8 -7
-6 -10 -3 -12 13 -8 12 4 20 3 18 -1 -3 -4 4 -13 16 -20 11 -7 17 -8 14 -2 -4
7 -1 8 8 5 9 -3 13 -10 10 -15 -3 -5 4 -9 15 -9 12 0 21 -5 21 -11 0 -5 4 -8
9 -4 5 3 16 -2 24 -10 9 -8 23 -15 31 -15 9 0 16 -4 16 -8 0 -4 10 -8 22 -9
12 -1 25 -9 30 -17 5 -9 15 -13 25 -9 11 4 14 3 9 -5 -5 -8 0 -12 14 -12 13 0
19 -4 14 -12 -4 -6 -3 -8 3 -5 6 4 19 0 29 -8 10 -8 29 -15 42 -15 13 0 20 -4
17 -10 -6 -9 8 -14 28 -11 4 0 7 -4 7 -9 0 -6 9 -10 21 -10 13 0 18 -4 13 -12
-4 -6 -3 -9 2 -6 15 9 56 -11 48 -23 -4 -7 -3 -9 4 -5 5 3 13 0 15 -6 4 -10 6
-10 6 0 1 6 6 12 12 12 6 0 9 -7 6 -14 -4 -10 -1 -13 10 -9 8 3 18 1 22 -6 4
-7 17 -13 29 -14 11 0 19 -4 17 -7 -2 -3 5 -12 17 -19 11 -7 17 -8 13 -2 -3 6
-2 11 4 11 5 0 13 -9 16 -20 3 -11 11 -20 16 -20 6 0 7 5 4 11 -4 6 2 5 13 -2
12 -7 18 -18 14 -24 -3 -5 1 -4 10 3 13 10 17 10 21 -2 3 -8 16 -20 28 -26 14
-8 19 -8 15 -1 -5 7 -1 9 8 5 9 -3 16 -14 17 -23 0 -10 2 -11 6 -3 3 8 11 5
25 -10 11 -13 17 -17 13 -10 -3 6 -1 12 4 12 6 0 11 -5 11 -11 0 -6 7 -8 16
-5 8 3 12 2 9 -4 -3 -6 -1 -10 5 -10 7 0 25 -9 41 -21 16 -11 34 -17 41 -13 7
5 9 2 5 -8 -4 -12 0 -15 19 -13 13 1 24 -1 24 -6 0 -4 10 -11 23 -15 12 -4 24
-9 27 -13 12 -14 71 -40 65 -28 -4 6 0 5 7 -3 18 -20 54 -40 73 -40 8 0 15 -4
15 -10 0 -5 9 -10 21 -10 12 0 17 -4 14 -11 -4 -6 0 -9 11 -7 12 2 18 -2 16
-10 -1 -8 2 -11 7 -7 6 3 37 -8 70 -25 35 -18 66 -28 73 -24 7 4 10 4 6 -1
-12 -13 12 -35 39 -35 14 0 21 -4 18 -10 -3 -6 4 -10 17 -10 13 0 32 -7 42
-15 10 -8 23 -12 29 -8 6 3 7 1 3 -5 -4 -7 -1 -12 8 -12 9 0 16 -5 16 -11 0
-5 5 -7 10 -4 6 3 10 0 10 -7 0 -9 3 -9 10 2 8 13 10 12 10 -3 0 -10 4 -15 10
-12 5 3 10 2 10 -4 0 -6 7 -7 17 -4 11 4 14 3 9 -5 -5 -8 1 -12 18 -12 14 0
26 -4 26 -10 0 -5 7 -10 16 -10 8 0 13 -4 10 -9 -3 -4 6 -7 19 -6 14 2 23 -2
22 -8 -1 -6 3 -11 10 -12 7 0 18 -6 25 -12 6 -7 20 -13 31 -13 10 0 15 -4 12
-10 -3 -6 1 -7 9 -4 10 4 18 -1 22 -11 5 -13 9 -14 15 -3 7 10 9 10 9 1 0 -7
7 -13 15 -13 8 0 15 -5 15 -11 0 -5 5 -7 10 -4 6 3 10 1 10 -5 0 -6 4 -8 10
-5 5 3 10 1 10 -4 0 -6 6 -10 13 -8 6 1 11 -4 9 -11 -1 -8 5 -12 16 -10 11 2
27 -4 37 -12 15 -12 17 -12 10 -1 -6 10 -4 12 5 6 17 -11 110 -13 116 -3 3 4
14 8 24 8 10 0 21 6 23 13 4 9 6 9 6 0 2 -22 86 54 86 77 0 8 5 14 11 13 7 -1
14 7 17 17 3 13 1 18 -6 13 -8 -4 -8 -2 0 9 7 8 10 18 6 21 -3 4 -1 7 6 7 9 0
9 5 0 21 -6 12 -7 19 -2 16 6 -4 9 62 9 166 -1 108 2 175 9 179 7 5 6 8 -1 8
-7 0 -10 22 -8 60 2 45 0 59 -9 54 -7 -4 -4 2 6 13 9 11 14 22 11 26 -11 11
-11 77 0 77 7 0 7 3 1 8 -14 10 -15 92 -1 92 6 0 5 4 -3 9 -8 5 -12 18 -8 31
3 13 0 23 -9 27 -8 3 -11 9 -8 14 3 5 1 9 -5 9 -6 0 -7 7 -4 17 4 11 3 14 -5
9 -11 -6 -17 5 -13 27 0 4 -5 7 -12 7 -7 0 -18 9 -25 20 -7 11 -19 20 -28 20
-8 0 -12 4 -9 10 3 5 0 7 -8 4 -8 -3 -21 2 -30 10 -8 8 -17 12 -21 9 -3 -4 -6
-1 -6 5 0 6 -7 9 -17 5 -12 -5 -14 -3 -8 7 6 10 2 12 -18 8 -20 -4 -24 -2 -19
11 3 9 2 13 -3 9 -10 -9 -47 10 -41 21 3 4 -9 5 -26 3 -21 -3 -29 -1 -24 7 4
6 1 11 -8 11 -9 0 -16 5 -16 12 0 6 -3 8 -7 5 -3 -4 -15 1 -26 10 -15 13 -18
14 -12 3 6 -11 3 -10 -12 3 -11 9 -23 14 -26 10 -4 -3 -7 -1 -7 5 0 6 -7 9
-15 5 -10 -3 -15 -1 -13 7 2 7 -3 15 -11 18 -10 3 -11 0 -5 -9 7 -12 5 -12 -9
0 -9 7 -14 18 -10 24 4 6 1 7 -6 2 -8 -4 -25 2 -43 15 -17 13 -28 18 -24 11 4
-6 2 -11 -3 -11 -6 0 -11 8 -11 18 0 12 -3 13 -8 5 -6 -9 -12 -7 -22 7 -8 11
-25 20 -37 20 -13 0 -23 5 -23 11 0 5 -4 8 -9 5 -5 -3 -14 1 -21 10 -7 8 -20
12 -28 9 -9 -3 -12 0 -9 8 3 8 -1 14 -9 14 -7 0 -11 -4 -8 -9 4 -5 -3 -4 -14
3 -12 7 -19 16 -17 19 2 4 -2 7 -10 8 -8 1 -22 3 -30 4 -8 1 -15 6 -15 11 0 5
-7 7 -15 3 -8 -3 -14 -2 -12 2 1 4 -2 8 -6 9 -5 1 -15 10 -24 20 -8 10 -12 12
-8 6 9 -19 -6 -16 -22 5 -8 9 -11 11 -7 3 8 -16 -9 -8 -38 17 -9 7 -22 11 -29
6 -8 -4 -10 -3 -5 4 6 10 -7 17 -17 10 -2 -2 -11 5 -21 15 -10 9 -22 15 -27
12 -5 -4 -9 -1 -9 4 0 6 -7 11 -15 11 -8 0 -15 6 -15 13 0 9 -2 9 -9 -1 -7
-11 -9 -10 -15 3 -3 9 -10 13 -16 10 -5 -3 -10 -2 -10 4 0 5 -10 11 -22 13
-13 2 -22 9 -21 15 1 6 -6 9 -17 6 -11 -3 -20 -1 -20 3 0 5 -9 15 -21 22 -17
11 -20 11 -13 0 4 -7 -2 -5 -13 5 -11 9 -23 14 -26 10 -4 -3 -7 -1 -7 5 0 7
-3 11 -7 11 -22 -4 -33 3 -34 19 0 14 -2 14 -9 -3 -8 -18 -9 -18 -9 -2 -1 10
-7 17 -13 15 -7 -3 -21 5 -31 16 -10 12 -16 15 -12 9 3 -7 1 -13 -4 -13 -6 0
-11 5 -11 10 0 6 -7 10 -15 10 -8 0 -15 5 -15 10 0 6 -9 10 -21 10 -11 0 -18
4 -15 8 2 4 -5 9 -16 9 -12 1 -24 6 -27 11 -9 14 -55 36 -47 23 4 -6 3 -11 -1
-11 -5 0 -14 9 -21 20 -7 11 -21 20 -32 20 -11 0 -20 5 -20 11 0 5 -4 7 -10 4
-6 -3 -10 -2 -10 4 0 5 -9 8 -20 6 -11 -2 -19 -1 -17 3 1 4 -2 9 -8 10 -5 2
-15 8 -22 14 -7 5 -16 7 -21 4 -5 -3 -20 6 -32 19 -13 14 -32 25 -42 25 -10 0
-18 6 -18 13 0 8 -4 7 -10 -3 -6 -10 -10 -11 -10 -2 0 6 -7 12 -16 12 -8 0
-12 5 -9 10 6 9 -25 15 -50 10 -5 -1 -7 2 -3 6 10 9 -41 36 -53 28 -5 -3 -9 2
-9 10 0 9 -9 16 -20 16 -11 0 -20 6 -20 13 0 8 -4 7 -10 -3 -8 -13 -10 -13
-10 2 0 11 -7 15 -25 14 -13 -2 -22 1 -19 5 3 5 -2 9 -11 9 -8 0 -18 6 -21 14
-3 8 -16 13 -30 11 -14 -1 -22 0 -19 3 8 8 -34 34 -45 27 -6 -3 -10 1 -10 9 0
10 -9 16 -25 16 -14 0 -25 5 -25 11 0 5 -4 8 -9 5 -5 -3 -14 1 -20 8 -10 12
-8 15 11 18 13 2 22 9 21 15 -2 8 4 10 14 6 10 -4 14 -2 9 5 -4 7 1 10 13 7
11 -2 29 5 42 16 12 10 25 16 29 14 4 -3 13 2 20 10 7 8 16 12 21 9 5 -3 9 0
9 6 0 6 4 9 10 5 5 -3 18 3 29 14 11 11 22 17 25 14 3 -3 12 0 20 6 8 7 20 10
26 6 6 -4 9 -1 8 6 -2 7 3 14 10 15 6 1 17 2 23 3 5 0 7 6 3 12 -4 7 -1 10 7
7 8 -3 33 5 57 18 23 13 42 20 42 16 0 -4 5 1 11 12 9 15 13 16 20 5 7 -11 9
-10 9 4 0 11 4 15 11 11 7 -4 21 -8 33 -8 11 -1 20 -7 19 -14 -2 -7 4 -9 13
-5 10 4 20 -1 26 -11 5 -9 13 -14 18 -11 5 3 20 -1 33 -10 13 -8 27 -12 31 -8
4 5 6 1 4 -7 -2 -8 4 -15 12 -15 8 0 17 -2 20 -5 15 -15 68 -39 74 -33 3 3 6
1 6 -5 0 -7 9 -12 21 -12 11 0 17 -4 14 -10 -3 -5 3 -10 15 -10 12 0 18 -4 15
-10 -3 -5 0 -7 8 -4 8 3 18 0 22 -5 3 -6 11 -8 17 -5 6 4 8 2 4 -4 -3 -6 -2
-13 4 -17 5 -3 10 0 10 7 1 9 5 7 14 -4 7 -10 21 -18 30 -18 9 0 16 -4 16 -10
0 -5 9 -10 20 -10 11 0 20 -5 20 -11 0 -5 4 -8 9 -5 5 3 14 -1 21 -9 7 -8 21
-15 31 -15 11 0 19 -4 19 -10 0 -5 8 -10 19 -10 10 0 24 -6 30 -14 7 -8 23
-17 38 -21 14 -3 32 -13 40 -21 8 -8 19 -12 24 -9 5 4 9 1 9 -4 0 -6 3 -10 8
-10 20 3 32 -2 26 -13 -4 -6 -3 -8 4 -4 6 3 13 2 17 -4 4 -6 11 -8 16 -5 5 4
9 2 9 -4 0 -5 10 -11 23 -13 12 -2 21 -9 20 -15 -1 -7 6 -9 19 -5 16 4 19 2
13 -8 -6 -10 -4 -12 8 -7 10 4 17 1 17 -5 0 -6 3 -9 6 -5 4 3 13 -1 21 -9 9
-8 22 -13 30 -10 8 3 11 1 8 -4 -3 -6 1 -10 10 -10 9 0 23 -7 31 -15 9 -8 27
-18 42 -22 15 -3 33 -13 41 -20 7 -8 21 -11 29 -8 9 3 13 3 9 -1 -8 -9 22 -33
42 -34 8 0 23 -8 34 -18 11 -9 17 -11 13 -4 -7 11 -4 12 12 3 12 -6 24 -16 27
-21 4 -6 11 -8 16 -5 5 4 9 1 9 -4 0 -6 6 -11 14 -11 8 0 18 -5 22 -12 5 -7 3
-8 -6 -3 -8 5 -11 4 -6 -3 4 -6 13 -9 21 -6 7 3 25 -2 39 -11 14 -9 31 -13 37
-9 8 4 9 3 5 -4 -4 -7 -1 -12 9 -12 9 0 14 -4 10 -9 -3 -6 4 -8 15 -6 11 2 18
0 15 -6 -4 -5 -1 -9 5 -9 6 0 9 -4 6 -9 -4 -5 3 -7 14 -4 11 3 20 0 20 -6 0
-6 5 -11 11 -11 5 0 7 6 3 13 -6 9 -4 9 8 -1 9 -7 38 -13 64 -13 72 1 88 3
101 13 7 5 18 6 24 2 8 -5 9 -3 5 5 -5 8 0 14 13 18 11 3 18 9 15 14 -3 5 4 9
15 9 15 0 19 4 14 17 -4 10 -2 14 4 10 6 -4 13 3 16 14 3 12 10 19 15 15 5 -3
9 1 9 9 0 8 -3 12 -7 10 -4 -2 -7 2 -7 10 0 8 4 12 9 9 4 -3 8 2 8 10 0 26 1
30 12 44 7 8 7 12 -1 12 -9 0 -9 5 -1 20 6 11 7 20 2 20 -5 0 -9 7 -9 15 0 8
4 15 9 15 5 0 5 8 -1 17 -5 10 -5 26 0 40 6 15 5 23 -2 23 -8 0 -8 4 0 13 8
10 7 17 -1 25 -7 7 -8 12 -2 12 6 0 11 7 11 15 0 8 -5 15 -10 15 -5 0 -4 7 3
15 7 8 9 15 4 15 -5 0 -9 11 -9 25 0 14 4 25 8 25 4 0 3 8 -2 18 -6 11 -6 24
0 35 7 12 6 17 -2 17 -8 0 -8 4 1 15 10 12 10 15 0 15 -10 0 -10 3 0 15 10 12
10 15 0 15 -10 0 -10 3 0 15 10 12 10 15 0 15 -10 0 -10 3 0 15 7 8 9 15 4 15
-5 0 -9 11 -9 25 0 14 4 25 8 25 4 0 3 8 -2 18 -6 11 -6 24 -1 32 5 9 5 19 -2
27 -7 9 -7 13 2 13 10 0 10 3 0 15 -10 12 -10 15 0 15 9 0 9 4 -1 17 -12 14
-12 15 0 9 8 -5 6 3 -5 20 -11 15 -13 25 -7 21 9 -6 11 -3 7 7 -3 9 -10 16
-16 16 -5 0 -7 4 -3 9 3 5 -5 20 -18 33 -12 13 -25 28 -27 33 -5 15 -30 38
-30 28 0 -4 -7 2 -15 14 -9 13 -23 20 -35 18 -11 -2 -20 1 -20 7 0 6 -3 9 -6
5 -4 -3 -13 1 -21 9 -8 8 -19 12 -24 9 -5 -4 -9 2 -9 12 0 15 -2 16 -10 3 -8
-12 -10 -12 -10 -1 0 8 -3 11 -7 8 -3 -4 -12 1 -20 11 -8 9 -12 11 -8 5 4 -9
1 -11 -9 -7 -9 3 -13 10 -10 16 3 5 -2 8 -12 6 -11 -2 -18 2 -17 8 1 6 -10 11
-24 12 -15 0 -34 9 -44 21 -11 13 -20 17 -24 11 -4 -7 -13 -4 -24 9 -10 11
-21 17 -25 13 -4 -4 -12 1 -17 11 -6 9 -15 15 -20 11 -6 -3 -16 1 -22 10 -7 9
-22 18 -35 19 -12 0 -22 6 -22 11 0 5 -3 7 -6 3 -4 -3 -13 1 -21 9 -8 8 -18
12 -23 9 -4 -3 -10 4 -13 15 -3 11 -1 18 4 14 5 -3 9 0 9 7 0 7 3 9 7 6 3 -4
16 -1 27 6 12 8 34 17 49 21 15 3 25 11 22 16 -4 6 1 7 11 3 14 -5 16 -3 11
12 -6 15 -5 16 8 5 11 -9 15 -10 15 0 0 6 6 10 12 8 7 -3 21 5 31 16 10 12 15
14 11 7 -4 -9 7 -4 26 9 19 13 30 18 26 9 -5 -9 -3 -8 6 2 7 9 24 20 38 24 14
4 27 10 30 14 3 3 16 12 29 19 19 11 22 11 16 0 -3 -7 3 -2 14 11 13 14 21 18
21 10 1 -9 6 -7 15 5 8 11 15 17 15 13 0 -4 10 -1 23 8 13 8 27 12 30 8 4 -3
7 -1 7 6 0 8 6 11 16 7 13 -5 14 -3 6 7 -8 10 -6 13 11 14 12 1 28 10 35 20 7
10 18 17 23 15 6 -1 8 2 4 8 -3 5 -2 10 4 10 5 0 8 9 6 19 -2 13 1 18 9 15 7
-3 13 1 13 8 1 25 8 43 23 56 13 12 13 13 0 6 -12 -6 -13 -5 -4 7 6 8 10 61
10 129 -1 67 3 118 9 122 7 5 6 8 -1 8 -7 0 -10 22 -8 60 2 45 0 59 -9 54 -7
-4 -4 2 6 13 9 11 14 23 11 26 -11 11 -11 72 0 79 8 5 8 8 0 8 -6 0 -9 29 -8
80 1 58 -1 78 -10 73 -6 -3 -3 3 7 14 11 13 14 23 8 27 -6 4 -7 14 -4 23 4 9
2 14 -3 10 -6 -3 -9 9 -9 29 1 22 -4 38 -14 44 -9 5 -15 11 -13 14 6 16 0 26
-15 26 -15 0 -16 2 -3 10 10 6 11 10 3 10 -7 0 -22 8 -32 18 -38 34 -51 43
-51 35 0 -4 -5 0 -11 10 -8 14 -14 16 -25 6 -11 -9 -14 -9 -14 1 0 10 -3 10
-14 1 -9 -7 -17 -8 -20 -3 -5 9 -21 9 -89 3 -5 -1 -5 -7 -1 -13 5 -10 4 -10
-6 -1 -11 10 -16 9 -27 -5 -10 -11 -12 -12 -8 -2 4 8 -2 5 -12 -8 -15 -18 -21
-20 -32 -10 -8 7 -11 9 -9 3 3 -5 0 -15 -7 -22 -11 -10 -15 -10 -18 0 -4 9 -6
9 -6 0 -1 -7 -8 -13 -16 -13 -8 0 -15 -4 -15 -10 0 -5 -9 -10 -20 -10 -10 0
-28 -10 -40 -22 -11 -12 -20 -16 -20 -9 0 7 -9 3 -22 -9 -12 -11 -29 -20 -39
-20 -9 0 -19 -7 -23 -15 -3 -8 -12 -12 -20 -9 -8 3 -17 0 -21 -5 -3 -6 -11 -8
-17 -5 -6 4 -8 3 -5 -3 8 -13 -37 -38 -52 -28 -7 3 -10 1 -9 -6 2 -7 -4 -13
-12 -14 -8 -1 -14 -5 -13 -11 1 -6 -12 -9 -28 -8 -22 2 -27 -1 -20 -10 7 -8 4
-12 -10 -14 -10 -1 -28 -3 -38 -4 -11 -1 -18 -6 -15 -9 6 -10 -17 -24 -41 -24
-11 -1 -19 -7 -17 -14 2 -8 -3 -11 -13 -8 -8 4 -15 2 -15 -3 0 -6 -6 -10 -14
-10 -8 0 -22 -7 -30 -16 -9 -8 -16 -11 -16 -4 0 7 -5 6 -14 -2 -8 -7 -11 -17
-8 -23 3 -5 -2 -4 -11 3 -13 12 -18 11 -28 -6 -7 -11 -19 -18 -26 -15 -7 3
-13 0 -13 -7 0 -6 -4 -8 -10 -5 -5 3 -10 1 -10 -6 0 -7 -3 -9 -7 -6 -3 4 -18
-3 -31 -15 -14 -13 -22 -17 -18 -11 5 9 2 11 -8 7 -9 -3 -14 -10 -11 -14 3 -5
1 -11 -5 -15 -5 -3 -10 -1 -10 5 0 6 -5 8 -10 5 -6 -4 -7 -12 -3 -18 5 -8 2
-8 -9 1 -12 10 -17 10 -27 -1 -6 -8 -8 -17 -4 -21 4 -4 0 -4 -9 -1 -8 3 -22 0
-29 -8 -8 -7 -20 -12 -27 -9 -6 2 -15 -3 -18 -12 -3 -8 -12 -12 -20 -9 -7 3
-16 -2 -20 -10 -3 -9 -12 -13 -20 -10 -8 3 -14 1 -14 -5 0 -6 -14 -13 -30 -17
-17 -4 -28 -11 -24 -16 3 -5 -2 -9 -11 -9 -19 0 -55 -20 -73 -40 -12 -13 -13
-13 -8 4 6 16 4 17 -9 6 -8 -7 -12 -16 -9 -21 3 -5 -2 -6 -10 -3 -9 3 -16 1
-16 -6 0 -6 -4 -8 -10 -5 -5 3 -10 1 -10 -5 0 -7 -7 -9 -16 -6 -8 3 -12 2 -9
-4 5 -9 -16 -15 -38 -11 -5 1 -6 -2 -4 -6 3 -5 -6 -13 -19 -20 -18 -8 -23 -8
-18 0 3 7 -1 4 -9 -5 -8 -10 -17 -15 -20 -11 -4 3 -7 1 -7 -6 0 -7 -4 -9 -10
-6 -6 3 -10 1 -10 -5 0 -6 -4 -9 -9 -6 -5 3 -12 -2 -15 -11 -6 -15 -8 -15 -16
-3 -9 13 -10 13 -10 0 0 -10 -3 -11 -8 -4 -4 6 -21 19 -39 27 -24 13 -33 14
-36 4 -3 -7 -6 -5 -6 5 -1 11 -12 20 -28 24 -16 4 -36 13 -45 21 -9 8 -21 12
-26 9 -6 -3 -13 1 -16 10 -4 9 -9 14 -12 11 -3 -3 -14 2 -24 11 -11 8 -29 17
-41 19 -12 2 -28 11 -36 21 -9 10 -12 11 -7 2 5 -10 -1 -8 -16 5 -13 11 -20
14 -16 7 7 -11 4 -11 -13 0 -12 7 -21 16 -21 20 0 5 -12 8 -26 8 -16 0 -23 4
-18 12 5 7 0 9 -14 6 -13 -4 -19 -2 -16 6 2 6 -5 12 -16 13 -11 1 -27 9 -36
18 -15 15 -15 17 5 22 11 3 21 9 21 14 0 5 3 8 8 8 19 -3 33 2 28 10 -4 5 2 8
11 7 10 -2 24 4 31 13 8 9 11 10 7 4 -3 -7 -2 -13 3 -13 6 0 13 7 16 16 3 8
10 12 16 9 5 -3 10 -3 10 2 0 4 11 13 25 20 19 8 23 8 18 0 -7 -12 19 6 45 31
8 7 18 10 23 7 5 -4 9 -2 9 4 0 6 8 7 17 4 12 -5 15 -2 11 8 -4 9 1 15 13 17
43 4 49 6 49 14 0 4 7 8 16 8 9 0 12 5 8 13 -4 6 -4 9 1 5 4 -4 15 -2 23 5 13
10 14 9 7 -3 -5 -9 0 -8 13 4 12 11 22 15 22 10 0 -5 5 -1 11 9 6 9 14 15 20
12 5 -4 9 -1 9 6 0 7 3 10 6 6 4 -3 19 0 35 9 16 8 31 14 35 14 3 -1 12 7 21
17 8 10 11 12 8 5 -6 -11 -3 -11 13 -1 12 7 19 17 16 21 -3 4 2 5 10 2 9 -3
16 -1 16 4 0 6 9 9 20 7 11 -2 18 0 15 6 -4 5 3 9 15 9 11 0 23 7 26 15 4 8
10 15 16 15 5 0 6 -6 2 -12 -4 -7 2 -5 13 5 11 9 25 17 31 17 7 0 12 5 12 11
0 6 6 9 14 6 8 -3 17 1 20 9 3 9 10 12 16 9 5 -3 10 2 10 12 0 14 2 15 9 4 6
-10 10 -10 16 -1 4 6 13 9 21 6 8 -3 13 0 11 7 -1 7 6 11 16 11 9 -1 17 2 17
7 0 5 7 9 16 9 8 0 13 4 10 8 -2 4 7 9 22 10 15 1 32 9 38 17 6 8 18 15 27 15
9 0 19 5 23 11 3 6 15 8 26 6 15 -4 17 -3 8 8 -9 11 -6 13 14 11 14 -2 24 2
23 8 -1 6 6 10 16 10 9 -1 17 2 17 8 0 5 4 7 9 3 6 -3 14 3 20 12 6 10 11 14
11 9 0 -5 8 -2 17 5 14 12 16 12 9 -1 -4 -8 0 -6 9 5 9 11 24 20 33 20 22 0
64 30 55 39 -4 4 5 2 21 -4 27 -10 28 -9 15 6 -12 15 -11 16 10 9 16 -5 21 -4
17 4 -4 6 -1 11 8 11 8 0 22 7 30 16 11 11 16 12 16 3 0 -7 6 -4 14 7 8 10 17
16 21 12 4 -3 18 3 31 15 13 11 34 22 45 24 28 4 59 22 59 33 0 5 7 7 15 4 8
-4 15 -1 15 5 0 6 7 11 16 11 8 0 12 5 8 11 -5 8 -1 8 14 0 16 -8 21 -7 26 5
3 8 10 13 15 10 5 -4 11 -1 13 4 2 6 13 12 25 12 14 2 19 7 15 17 -4 10 -1 13
11 8 9 -3 31 5 52 19 20 13 34 20 30 14 -3 -5 12 0 35 12 22 12 40 25 40 30 0
4 7 5 15 2 8 -4 15 -1 15 6 0 6 5 8 10 5 6 -3 10 -1 10 5 0 6 5 8 10 5 6 -3
10 -1 10 4 0 6 3 10 8 9 11 -2 44 13 76 36 19 13 27 15 22 5 -4 -7 -1 -6 7 3
8 10 17 15 20 11 4 -3 7 -1 7 6 0 8 7 11 15 7 8 -3 15 -1 15 5 0 5 12 14 26
19 14 6 22 15 18 21 -4 7 1 7 16 -1 12 -7 20 -8 16 -2 -3 5 3 20 14 32 11 12
17 27 14 32 -3 4 0 7 8 6 7 -2 12 3 10 10 -1 7 5 15 13 18 8 3 12 10 9 16 -3
5 2 16 12 24 11 9 14 13 8 10 -7 -4 -11 7 -10 29 0 19 5 35 9 35 4 0 3 8 -2
18 -6 11 -6 24 0 35 7 12 6 17 -2 17 -8 0 -8 4 1 15 10 12 10 15 0 15 -10 0
-10 3 0 15 10 12 10 15 0 15 -10 0 -10 3 0 15 10 12 10 15 0 15 -10 0 -10 3 0
15 7 8 9 15 4 15 -5 0 -9 11 -9 25 0 14 4 25 8 25 4 0 4 8 -2 17 -5 10 -5 26
0 40 6 15 5 23 -2 23 -8 0 -8 4 0 13 8 10 7 17 -1 25 -7 7 -8 12 -2 12 6 0 11
7 11 15 0 8 -5 15 -10 15 -5 0 -4 7 3 15 7 8 9 15 4 15 -5 0 -9 11 -9 25 0 14
4 25 8 25 4 0 3 10 -4 21 -8 15 -8 19 0 15 8 -5 8 0 1 18 -6 18 -6 26 1 26 6
0 7 6 0 17 -5 10 -5 26 0 40 6 15 5 23 -2 23 -8 0 -8 4 0 14 9 11 8 15 -6 20
-15 6 -15 8 -3 16 12 8 11 10 -5 11 l-20 0 20 9 c11 5 14 9 7 9 -7 1 -11 5 -8
9 3 5 -3 18 -14 29 -10 12 -16 24 -13 27 4 3 1 6 -5 6 -7 0 -12 7 -12 16 0 8
-4 13 -9 10 -5 -3 -23 8 -40 24 -17 17 -31 25 -31 18 0 -9 -3 -10 -8 -2 -11
16 -52 24 -52 11 0 -9 -2 -9 -8 0 -4 6 -27 11 -54 10 -25 -1 -44 -6 -40 -11z
m-408 -206 c0 -5 -5 -10 -11 -10 -5 0 -7 5 -4 10 3 6 8 10 11 10 2 0 4 -4 4
-10z m-970 -490 c0 -5 -5 -10 -11 -10 -5 0 -7 5 -4 10 3 6 8 10 11 10 2 0 4
-4 4 -10z m-429 -1667 c13 -16 12 -17 -3 -4 -10 7 -18 15 -18 17 0 8 8 3 21
-13z"/>
<path d="M4280 7087 c0 -4 -5 -5 -11 -2 -5 4 -18 0 -27 -8 -9 -8 -27 -18 -40
-21 -12 -4 -27 -16 -33 -27 -5 -11 -15 -16 -21 -13 -6 4 -8 3 -4 -4 3 -6 2
-13 -4 -17 -6 -4 -8 -11 -5 -16 4 -5 -1 -9 -10 -9 -11 0 -14 -7 -11 -25 3 -15
0 -25 -7 -25 -7 0 -6 -4 3 -10 10 -6 11 -10 3 -10 -9 0 -11 -11 -8 -35 2 -20
1 -33 -4 -31 -4 3 -8 -1 -8 -9 0 -8 5 -15 11 -15 6 0 4 -5 -4 -10 -9 -6 -10
-10 -3 -10 12 0 12 -37 0 -57 -4 -6 -2 -15 4 -19 8 -4 7 -9 -2 -15 -9 -6 -10
-9 -2 -9 12 0 12 -17 0 -37 -5 -8 -3 -13 4 -13 8 0 8 -4 -1 -15 -7 -9 -8 -15
-2 -15 11 0 11 -18 -1 -37 -5 -8 -3 -13 3 -13 7 0 8 -6 0 -19 -7 -14 -7 -22 0
-26 8 -5 7 -11 -1 -21 -9 -11 -9 -14 0 -14 8 0 9 -5 2 -17 -5 -10 -5 -26 -1
-39 5 -12 6 -25 2 -29 -10 -9 -9 -39 2 -46 4 -4 3 -17 -4 -29 -9 -17 -9 -21 0
-15 9 6 9 3 1 -13 -8 -14 -8 -21 0 -24 7 -2 7 -12 0 -31 -9 -23 -8 -27 7 -27
10 0 13 -3 7 -8 -11 -8 -14 -72 -3 -72 4 0 12 -10 19 -21 9 -17 8 -20 -2 -13
-7 4 0 -9 15 -29 16 -20 32 -37 37 -37 5 0 9 -6 9 -14 0 -10 7 -13 20 -11 11
2 18 0 15 -6 -4 -5 1 -9 10 -9 9 0 14 -4 11 -9 -3 -4 5 -7 19 -6 13 2 26 -3
29 -11 3 -8 12 -14 21 -14 8 0 15 -4 15 -9 0 -6 9 -8 20 -6 12 2 20 -2 20 -10
0 -8 8 -12 19 -10 11 2 22 -3 25 -12 3 -8 12 -13 19 -10 6 2 19 -1 27 -9 8 -7
22 -14 30 -16 8 -2 21 -11 28 -21 9 -12 21 -16 34 -11 14 4 18 2 14 -5 -5 -7
-1 -9 8 -5 10 4 16 1 16 -9 0 -10 7 -15 20 -12 11 2 20 -1 20 -6 0 -6 4 -8 9
-5 5 3 11 -1 15 -9 3 -8 17 -15 31 -15 15 0 24 -4 20 -10 -3 -5 3 -10 15 -10
12 0 18 -4 15 -10 -3 -6 1 -7 9 -4 10 4 16 1 16 -7 0 -11 3 -11 10 1 8 13 10
12 10 -2 0 -10 3 -17 8 -16 12 4 72 -24 72 -33 0 -5 7 -6 15 -3 8 4 15 1 15
-5 0 -6 9 -11 20 -11 11 0 20 -5 20 -11 0 -5 5 -7 10 -4 6 3 10 1 10 -4 0 -6
7 -11 16 -11 9 0 23 -8 31 -17 8 -10 12 -12 8 -6 -4 9 -1 11 9 7 9 -3 16 -12
16 -19 0 -8 8 -11 20 -8 11 3 20 0 20 -6 0 -6 7 -11 15 -11 8 0 15 -6 15 -12
0 -10 2 -10 9 0 7 11 9 10 15 -3 3 -9 10 -13 16 -10 5 3 10 1 10 -5 0 -6 5 -8
10 -5 6 3 10 1 10 -5 0 -6 5 -8 10 -5 6 3 10 1 10 -5 0 -6 5 -8 10 -5 6 3 10
1 10 -5 0 -7 7 -10 15 -6 8 3 15 1 15 -4 0 -6 7 -10 15 -10 8 0 15 -4 15 -9 0
-5 7 -12 16 -15 10 -4 13 -2 9 7 -4 6 0 4 8 -6 9 -10 19 -19 24 -20 4 -1 7 -6
5 -11 -2 -5 4 -4 12 3 13 11 17 11 22 -2 3 -9 12 -18 20 -21 9 -4 12 -2 8 5
-3 6 3 5 15 -3 12 -7 21 -16 21 -20 0 -5 9 -8 20 -8 11 0 20 -5 20 -12 0 -6 3
-8 7 -5 3 4 26 -5 50 -19 24 -14 48 -22 53 -19 6 3 10 -1 10 -10 0 -9 4 -14 9
-10 5 3 16 -1 24 -9 8 -8 17 -12 21 -9 3 4 6 2 6 -4 0 -6 8 -10 18 -9 9 0 16
-4 15 -11 -2 -7 4 -10 12 -7 9 4 15 0 15 -7 0 -11 3 -11 10 1 6 9 10 10 10 3
0 -13 59 -45 70 -38 4 3 10 -2 14 -10 3 -8 12 -12 21 -9 10 4 15 0 15 -10 0
-9 3 -15 8 -14 17 3 61 -15 66 -28 3 -8 11 -14 18 -12 7 1 23 -3 36 -10 12 -7
22 -9 22 -5 0 4 6 -2 14 -12 8 -11 19 -16 30 -12 9 4 15 3 12 -1 -7 -12 63
-44 76 -36 7 4 8 2 4 -5 -5 -7 4 -16 26 -23 18 -7 36 -11 41 -10 4 1 7 -3 7
-9 0 -5 5 -7 10 -4 6 3 10 1 10 -6 0 -7 3 -10 6 -6 4 3 15 -4 26 -16 11 -12
17 -16 13 -9 -3 6 -1 12 4 12 6 0 11 -5 11 -12 0 -6 3 -8 7 -5 3 4 12 -1 19
-11 11 -14 13 -14 14 -2 0 9 6 6 14 -9 8 -15 16 -20 20 -13 4 8 13 5 26 -8 11
-11 27 -20 36 -20 9 0 12 -5 8 -12 -6 -10 -4 -10 7 -2 10 8 20 5 39 -13 16
-16 18 -22 7 -17 -11 4 -19 0 -23 -10 -3 -9 -10 -13 -15 -10 -6 3 -22 -2 -37
-12 -15 -10 -30 -17 -34 -16 -5 1 -8 -3 -8 -9 0 -6 -7 -8 -16 -5 -8 3 -12 2
-9 -4 3 -6 -1 -10 -9 -10 -9 0 -16 -6 -16 -12 0 -9 -4 -8 -10 2 -8 13 -10 13
-10 -2 0 -11 -5 -15 -15 -12 -8 4 -15 1 -15 -6 0 -6 -4 -8 -10 -5 -5 3 -10 2
-10 -2 0 -5 -9 -14 -21 -21 -12 -8 -18 -9 -14 -3 11 19 -10 12 -24 -8 -8 -11
-20 -17 -27 -14 -8 3 -17 -2 -20 -11 -3 -9 -10 -13 -15 -11 -5 3 -19 -1 -32
-10 -13 -8 -27 -12 -32 -8 -4 5 -5 2 -1 -4 5 -9 0 -13 -14 -13 -12 0 -18 -4
-15 -10 3 -6 -1 -7 -9 -4 -9 3 -16 1 -16 -4 0 -6 -18 -10 -40 -9 -24 1 -40 7
-40 15 0 6 -9 12 -21 12 -11 0 -17 4 -14 10 3 5 0 7 -8 4 -8 -3 -21 2 -30 10
-9 9 -23 16 -32 16 -9 0 -13 4 -10 10 3 5 0 7 -8 4 -8 -3 -17 2 -20 10 -4 9
-13 13 -20 10 -8 -3 -22 2 -31 11 -9 9 -16 13 -16 8 0 -4 -5 0 -11 9 -5 9 -16
15 -23 12 -7 -3 -21 2 -30 11 -9 9 -25 17 -35 18 -11 0 -18 4 -15 8 2 4 -10 9
-27 13 -17 3 -28 10 -24 16 4 6 -1 7 -11 3 -13 -5 -15 -3 -9 8 4 8 5 11 0 7
-4 -4 -20 -1 -35 7 -15 8 -30 11 -33 8 -4 -3 -9 2 -13 11 -3 9 -10 13 -15 10
-5 -3 -12 1 -15 10 -3 8 -12 12 -20 9 -9 -3 -14 2 -14 13 0 16 -2 17 -10 4 -6
-10 -10 -11 -10 -2 0 6 -9 12 -20 12 -11 0 -20 5 -20 10 0 6 -7 10 -16 10 -8
0 -13 4 -9 9 3 6 -4 8 -15 6 -11 -2 -20 1 -20 7 0 5 -7 7 -16 4 -8 -3 -13 -2
-10 2 3 5 -9 17 -26 27 -21 12 -28 14 -23 4 5 -8 -1 -5 -13 5 -12 11 -22 15
-22 10 0 -5 -5 -2 -10 7 -5 9 -30 23 -54 30 -25 7 -42 17 -40 21 3 4 -4 8 -15
8 -11 0 -23 5 -26 10 -4 6 -11 8 -16 5 -5 -4 -9 1 -9 10 0 9 -4 14 -8 11 -7
-4 -71 22 -82 34 -15 16 -43 33 -36 23 4 -7 2 -13 -3 -13 -6 0 -11 3 -11 8 0
4 -14 13 -30 20 -18 9 -27 18 -23 25 4 7 -1 6 -10 -2 -11 -9 -17 -10 -17 -2 0
6 -7 11 -15 11 -8 0 -15 4 -15 9 0 9 -33 23 -58 25 -8 1 -18 9 -23 18 -5 10
-16 15 -24 12 -8 -4 -15 -1 -15 5 0 6 -7 11 -16 11 -9 0 -23 8 -31 18 -8 9
-12 11 -8 5 4 -8 -6 -6 -24 4 -16 10 -27 22 -23 28 3 5 -3 3 -13 -5 -10 -8
-16 -10 -12 -3 8 13 -3 22 -35 28 -12 3 -25 10 -30 17 -6 10 -8 10 -8 0 0 -8
-5 -10 -12 -5 -7 4 -24 8 -38 8 -14 0 -31 4 -39 9 -10 7 -12 6 -6 -4 6 -10 4
-12 -8 -7 -10 4 -17 2 -17 -5 0 -7 -5 -6 -15 2 -12 10 -16 9 -21 -4 -3 -9 -10
-13 -15 -10 -5 3 -9 2 -9 -3 0 -4 -14 -14 -30 -21 -17 -8 -28 -18 -25 -22 3
-5 -3 -15 -13 -22 -16 -12 -30 -34 -32 -56 -1 -4 -8 -11 -15 -15 -11 -6 -12
-14 -5 -32 5 -14 6 -25 2 -25 -4 0 -7 -23 -8 -50 0 -28 4 -50 8 -50 5 0 6 -6
1 -12 -11 -18 -10 -42 2 -50 6 -5 6 -8 -1 -8 -6 0 -10 -12 -8 -27 1 -15 -2
-33 -8 -40 -8 -11 -7 -12 7 -7 13 5 16 4 11 -5 -12 -19 -15 -91 -4 -91 5 0 6
-6 1 -12 -11 -18 -10 -42 2 -50 6 -5 6 -8 -1 -8 -6 0 -10 -12 -8 -27 1 -15 -2
-33 -8 -40 -8 -11 -7 -12 7 -7 13 5 16 4 11 -5 -11 -16 -16 -91 -7 -91 4 0 8
-7 8 -15 0 -8 -3 -15 -7 -15 -12 0 0 -113 13 -126 4 -4 7 -12 7 -18 0 -6 -5
-4 -10 4 -5 8 -10 10 -10 4 0 -6 7 -17 15 -24 8 -7 13 -16 10 -20 -3 -4 2 -10
10 -14 8 -3 15 -11 15 -17 0 -7 8 -18 18 -26 10 -9 11 -12 2 -7 -9 4 -12 3 -7
-2 5 -5 13 -10 18 -10 5 -1 14 -2 20 -3 5 0 7 -6 3 -13 -5 -8 0 -9 14 -6 12 4
25 1 29 -4 4 -7 1 -8 -7 -3 -8 5 -11 4 -6 -3 4 -6 13 -9 21 -5 8 3 15 0 15 -7
0 -6 5 -8 10 -5 6 3 10 1 10 -5 0 -6 5 -8 10 -5 6 3 10 1 10 -4 0 -6 9 -11 20
-11 11 0 20 -5 20 -11 0 -5 5 -7 10 -4 6 3 10 1 10 -5 0 -6 4 -9 9 -6 5 4 11
1 13 -4 2 -6 13 -12 25 -13 12 0 19 -5 17 -9 -5 -7 10 -12 29 -9 4 0 7 -3 7
-9 0 -5 9 -10 19 -10 10 0 22 -7 25 -16 3 -8 11 -12 17 -8 6 3 15 1 19 -5 4
-7 16 -13 28 -14 11 0 19 -4 16 -8 -2 -4 0 -10 6 -14 5 -3 10 -1 10 5 0 6 7 4
16 -5 9 -9 22 -14 29 -11 8 3 16 -2 19 -10 3 -8 12 -14 21 -14 8 0 15 -4 15
-8 0 -5 7 -9 15 -10 8 -1 22 -3 30 -4 8 -1 12 -5 9 -10 -3 -5 -10 -6 -15 -2
-6 3 -9 -2 -7 -11 2 -13 -4 -19 -21 -20 -14 -1 -27 -7 -29 -14 -3 -9 -7 -9
-19 0 -8 7 -13 8 -12 3 5 -28 -1 -35 -22 -23 -16 8 -20 8 -14 -1 4 -7 -1 -13
-14 -17 -12 -3 -21 -10 -21 -17 0 -6 -5 -4 -10 4 -8 13 -10 12 -10 -3 0 -10
-4 -16 -9 -12 -5 3 -17 -2 -25 -11 -9 -8 -16 -13 -16 -9 0 3 -15 -2 -32 -12
-18 -9 -36 -16 -40 -15 -5 1 -8 -2 -8 -8 0 -5 -9 -10 -19 -10 -11 0 -23 -5
-26 -10 -4 -6 -12 -7 -18 -4 -7 4 -9 4 -5 -1 5 -5 -2 -13 -15 -20 -15 -8 -24
-8 -29 -1 -5 7 -8 4 -8 -6 0 -10 -7 -18 -15 -18 -8 0 -15 -5 -15 -11 0 -5 -4
-8 -9 -5 -10 7 -61 -16 -61 -27 0 -5 -4 -5 -10 -2 -5 3 -10 1 -10 -4 0 -6 -7
-11 -15 -11 -8 0 -15 -7 -15 -16 0 -8 -4 -12 -10 -9 -5 3 -10 -1 -10 -9 0 -9
-5 -16 -11 -16 -5 0 -8 -4 -5 -9 3 -5 -1 -11 -9 -15 -8 -3 -15 -15 -15 -26 0
-11 -4 -20 -9 -20 -5 0 -8 -11 -6 -25 2 -21 0 -23 -12 -14 -11 10 -12 8 -3
-15 12 -33 13 -39 2 -32 -5 3 -9 -1 -9 -9 0 -8 3 -15 7 -15 4 0 7 -7 7 -15 0
-8 -5 -15 -11 -15 -6 0 -5 -4 3 -9 10 -6 11 -13 2 -29 -6 -11 -8 -23 -3 -26 7
-4 8 -50 2 -66 -6 -14 -4 -36 4 -41 4 -4 4 -15 -2 -25 -6 -11 -7 -27 -1 -41 5
-14 4 -25 -2 -29 -6 -4 -6 -11 2 -20 9 -11 8 -14 -2 -14 -12 0 -12 -2 -1 -9
19 -11 19 -15 3 -34 -10 -13 -10 -17 -1 -17 10 0 10 -3 0 -15 -7 -9 -8 -15 -2
-15 11 0 11 -18 -1 -37 -5 -8 -3 -13 3 -13 7 0 8 -6 0 -19 -7 -14 -7 -22 0
-26 8 -5 7 -11 -1 -21 -9 -11 -9 -14 0 -14 8 0 9 -5 2 -17 -5 -10 -5 -26 0
-40 5 -13 4 -25 -1 -28 -6 -4 -4 -15 4 -28 8 -12 12 -30 11 -39 -2 -10 1 -18
6 -18 6 0 7 -4 4 -10 -3 -5 1 -10 9 -10 9 0 13 -7 11 -20 -2 -13 2 -20 11 -20
8 0 14 -9 14 -21 0 -17 3 -19 13 -11 10 9 17 6 27 -8 8 -11 20 -20 28 -20 7 0
10 -5 6 -11 -4 -8 0 -8 15 0 17 10 22 9 28 -4 5 -13 7 -14 14 -3 7 10 9 10 9
1 0 -7 5 -13 11 -13 5 0 7 6 3 13 -5 9 -4 9 5 1 8 -7 25 -9 46 -4 19 4 36 5
39 2 4 -3 6 0 6 7 0 7 5 9 10 6 6 -3 13 1 16 10 6 13 8 14 15 3 7 -10 9 -11 9
0 0 7 4 11 9 8 5 -3 11 1 15 9 3 8 15 15 26 15 11 0 20 5 20 10 0 6 9 10 20
10 11 0 23 7 26 15 4 8 10 12 15 9 5 -3 9 1 9 8 0 11 2 10 9 0 7 -11 9 -10 15
3 3 9 10 14 15 11 5 -3 14 1 21 9 7 8 16 12 21 9 5 -3 9 0 9 6 0 6 4 9 10 5 5
-3 18 2 28 12 10 10 27 19 37 21 11 2 25 10 32 19 6 8 16 12 21 9 5 -3 15 1
22 9 7 8 16 12 21 9 5 -3 9 0 9 6 0 6 4 9 9 6 4 -3 17 4 27 15 10 11 23 18 30
15 7 -3 15 2 18 10 3 8 15 14 26 14 11 0 20 5 20 11 0 6 7 8 15 5 9 -3 18 1
22 10 3 8 12 13 19 10 9 -3 14 1 14 12 0 15 2 15 10 2 7 -12 10 -12 10 -1 0 8
6 11 16 7 8 -3 12 -2 9 4 -3 5 6 12 20 16 14 3 25 10 25 15 0 5 9 9 20 9 11 0
20 5 20 11 0 5 5 7 10 4 6 -3 10 -1 10 4 0 6 3 10 8 9 16 -3 41 15 35 26 -4 6
1 5 10 -3 14 -11 18 -11 23 3 4 10 13 15 20 12 8 -3 14 -1 14 4 0 6 7 10 15
10 8 0 15 5 15 11 0 5 5 7 10 4 6 -3 10 -1 10 5 0 6 5 8 10 5 6 -3 10 -1 10 6
0 7 3 9 7 6 3 -4 12 1 19 11 11 14 13 14 14 2 0 -12 3 -11 11 3 6 9 14 15 20
12 5 -4 9 -1 9 6 0 7 3 10 6 6 4 -3 13 0 21 8 8 8 23 15 33 15 11 0 23 7 28
15 4 9 18 17 30 18 12 1 22 4 22 8 0 4 14 12 31 18 20 7 28 15 23 23 -5 10 -4
10 6 1 10 -9 16 -8 29 6 9 9 12 10 6 2 -15 -22 16 -2 33 21 7 10 17 16 22 13
5 -3 24 3 43 14 19 11 38 17 43 13 4 -4 5 0 2 9 -5 12 1 15 27 14 23 0 31 3
28 12 -3 8 3 13 14 13 11 0 23 3 27 7 10 11 37 12 30 2 -5 -8 9 -13 29 -10 4
0 7 -4 7 -10 0 -5 4 -8 9 -4 5 3 16 -1 24 -9 8 -8 17 -12 21 -9 3 4 6 1 6 -6
0 -8 7 -10 21 -6 13 5 19 3 15 -3 -3 -5 2 -16 11 -23 9 -8 14 -9 10 -2 -5 8
-1 8 18 0 14 -7 25 -16 25 -20 0 -5 5 -5 10 -2 6 3 10 2 10 -4 0 -6 7 -7 17
-4 11 4 14 3 9 -5 -5 -8 0 -12 14 -12 12 0 18 -4 15 -10 -3 -5 0 -7 8 -4 8 3
22 -2 31 -11 9 -9 25 -17 36 -18 11 -1 20 -5 20 -9 0 -4 6 -8 14 -8 8 0 16 -4
18 -10 2 -5 15 -11 30 -12 15 -1 24 -6 22 -10 -3 -4 2 -8 10 -8 9 0 16 -4 16
-10 0 -5 7 -7 15 -4 11 5 13 2 8 -12 -5 -13 -3 -15 7 -9 9 6 11 4 6 -4 -5 -7
-14 -10 -21 -7 -8 3 -15 2 -17 -2 -6 -14 -90 -52 -100 -45 -7 3 -8 1 -4 -6 5
-7 -3 -13 -23 -17 -17 -4 -31 -10 -31 -15 0 -5 -8 -9 -18 -9 -11 0 -29 -9 -42
-20 -13 -11 -29 -20 -37 -20 -7 0 -13 -6 -13 -12 0 -9 -4 -8 -10 2 -5 8 -10
10 -10 5 0 -6 -9 -16 -21 -23 -17 -11 -20 -11 -14 0 3 7 0 5 -8 -4 -8 -10 -17
-15 -20 -11 -4 3 -7 1 -7 -6 0 -7 -4 -9 -10 -6 -5 3 -10 1 -10 -4 0 -6 -3 -10
-7 -9 -17 4 -62 -26 -56 -36 3 -7 1 -6 -7 1 -10 9 -16 8 -29 -6 -9 -9 -12 -11
-7 -4 6 10 4 12 -8 7 -9 -3 -16 -11 -16 -16 0 -6 -7 -7 -16 -4 -8 3 -12 2 -9
-4 3 -6 -1 -10 -10 -10 -9 0 -13 -4 -10 -10 3 -6 -1 -7 -9 -4 -9 4 -16 1 -16
-6 0 -7 -7 -10 -15 -6 -8 3 -24 -5 -36 -17 -12 -12 -19 -16 -15 -10 4 8 -5 6
-23 -4 -16 -10 -27 -22 -24 -27 3 -5 1 -6 -6 -2 -6 4 -18 2 -26 -4 -8 -7 -15
-9 -15 -4 0 4 -6 -1 -14 -12 -8 -10 -18 -16 -22 -11 -4 4 -15 0 -25 -9 -9 -8
-26 -16 -37 -17 -12 0 -19 -3 -17 -6 7 -7 -46 -31 -56 -25 -5 3 -9 1 -9 -5 0
-5 -14 -16 -30 -25 -20 -9 -28 -10 -24 -3 3 7 -1 4 -9 -5 -8 -10 -17 -15 -20
-11 -4 3 -7 1 -7 -5 0 -7 -3 -11 -7 -11 -21 3 -33 -2 -27 -13 4 -6 3 -8 -4 -4
-6 3 -14 1 -17 -5 -4 -5 -13 -8 -20 -5 -7 2 -16 -2 -19 -9 -3 -9 -12 -12 -22
-8 -12 4 -15 3 -10 -5 7 -12 -5 -16 -32 -13 -7 1 -15 -5 -18 -13 -3 -8 -12
-12 -20 -9 -8 3 -14 0 -14 -6 0 -6 -9 -11 -21 -11 -14 0 -19 -5 -16 -14 4 -10
1 -13 -9 -9 -8 3 -21 0 -29 -7 -8 -7 -15 -9 -15 -4 0 4 -7 -1 -16 -12 -8 -10
-13 -14 -10 -7 7 13 -96 -35 -105 -50 -4 -5 -12 -6 -19 -2 -9 6 -11 4 -5 -5 6
-10 4 -12 -8 -7 -9 3 -18 -1 -21 -10 -4 -8 -12 -13 -19 -10 -8 3 -19 -4 -25
-14 -7 -10 -15 -18 -20 -17 -11 3 -56 -14 -63 -24 -3 -5 -16 -10 -28 -11 -12
-1 -20 -6 -17 -13 3 -7 -5 -9 -21 -6 -18 3 -24 1 -19 -7 5 -7 0 -11 -13 -11
-12 0 -21 -5 -21 -11 0 -5 -4 -8 -9 -4 -6 3 -14 -3 -20 -12 -6 -10 -11 -12
-11 -5 0 10 -4 10 -19 0 -11 -7 -18 -15 -15 -19 2 -5 -4 -6 -15 -4 -11 2 -22
-3 -25 -11 -3 -8 -14 -14 -23 -12 -10 2 -17 -2 -16 -9 1 -6 -5 -10 -15 -9 -9
2 -23 -4 -30 -13 -11 -13 -12 -13 -7 -1 6 13 5 13 -7 0 -7 -8 -20 -15 -28 -15
-8 0 -14 -5 -13 -12 2 -7 -6 -10 -17 -8 -11 2 -24 -4 -30 -13 -6 -11 -9 -12
-10 -4 0 10 -4 10 -16 -2 -8 -9 -22 -16 -30 -16 -8 0 -14 -4 -14 -9 0 -8 -32
-22 -55 -25 -5 -1 -18 -10 -27 -20 -12 -12 -18 -14 -18 -6 0 7 -12 0 -26 -16
-15 -16 -23 -22 -19 -14 3 8 -3 4 -14 -9 -12 -13 -21 -29 -21 -37 0 -8 -6 -13
-12 -11 -8 1 -12 -6 -10 -17 2 -12 -1 -16 -9 -10 -9 5 -11 1 -7 -14 4 -12 1
-20 -5 -19 -5 1 -11 -10 -12 -24 -1 -14 -5 -31 -9 -37 -4 -7 -2 -12 6 -12 9 0
9 -3 -2 -10 -13 -9 -13 -10 0 -10 9 0 11 -3 5 -8 -6 -4 -10 -18 -9 -32 1 -14
-3 -31 -9 -38 -7 -9 -6 -11 8 -6 13 5 16 4 11 -5 -12 -19 -15 -91 -4 -91 5 0
6 -6 1 -12 -11 -18 -10 -42 2 -50 6 -5 6 -8 -1 -8 -6 0 -10 -12 -8 -27 1 -15
-2 -33 -8 -40 -8 -11 -7 -12 7 -7 13 5 16 4 11 -5 -11 -16 -16 -91 -7 -91 4 0
8 -7 8 -15 0 -8 -3 -15 -7 -15 -10 0 -6 -94 5 -102 7 -5 7 -8 0 -8 -11 0 -14
-75 -3 -86 4 -4 3 -13 -3 -21 -7 -8 -8 -13 -1 -13 5 0 13 -7 16 -16 3 -8 2
-13 -3 -10 -5 4 -7 -3 -4 -14 3 -11 10 -17 15 -13 6 3 9 0 6 -8 -2 -7 5 -22
16 -32 12 -10 15 -16 9 -12 -9 4 -11 1 -7 -9 3 -9 10 -13 15 -10 5 3 9 0 9 -5
0 -6 6 -11 14 -11 8 0 21 -8 28 -17 7 -10 22 -20 33 -21 11 -2 21 -8 23 -12 2
-5 14 -5 28 0 13 5 24 6 24 2 0 -4 17 -7 38 -6 52 2 54 3 48 13 -4 5 3 7 14 4
12 -3 22 1 26 11 3 9 10 14 14 11 10 -6 70 24 70 35 0 4 8 7 18 6 9 -2 20 2
24 8 4 6 12 12 18 12 5 1 15 2 21 3 5 0 7 6 3 13 -5 7 -3 8 6 3 7 -4 15 -2 20
4 4 7 13 14 21 16 42 9 58 18 52 28 -4 6 0 8 11 4 10 -4 24 1 36 13 11 11 20
17 20 14 0 -4 7 -1 15 6 8 6 20 8 26 4 8 -5 9 -3 4 6 -6 10 -4 12 9 7 9 -4 15
-3 12 1 -3 4 4 14 16 21 13 8 18 9 13 1 -5 -8 0 -7 13 1 12 7 19 16 16 20 -2
5 5 6 16 4 11 -2 20 0 20 6 0 5 7 9 15 9 8 0 15 4 15 10 0 5 7 6 17 3 11 -4
14 -3 9 5 -4 7 -1 12 10 12 9 0 23 8 31 17 8 10 12 12 8 5 -9 -18 6 -15 22 6
8 9 11 11 8 4 -6 -11 -3 -11 13 -1 12 7 19 17 16 21 -3 4 2 5 10 2 9 -3 16 -1
16 4 0 6 9 9 21 7 18 -4 19 -2 7 12 -8 10 -8 14 -1 10 6 -4 28 2 48 13 19 11
40 20 45 20 5 0 32 13 59 29 34 20 51 26 55 18 2 -7 5 -1 5 13 1 20 3 22 11
10 9 -14 14 -7 11 13 -1 5 3 6 9 2 6 -4 18 -1 27 7 14 11 16 11 9 -2 -4 -8 -1
-7 8 4 8 10 20 15 27 10 7 -4 10 -3 6 2 -3 6 3 16 15 23 16 10 19 10 12 0 -4
-7 6 -3 23 9 17 12 33 19 37 15 3 -3 6 -2 6 3 0 5 14 18 31 28 18 11 29 14 25
8 -8 -13 54 17 72 35 7 7 22 13 32 13 10 0 21 7 24 16 4 9 9 14 13 11 3 -4 12
-2 20 4 7 6 13 8 13 5 0 -4 10 3 22 14 12 11 28 18 34 16 7 -3 15 2 18 10 3 9
10 12 16 9 6 -3 13 0 16 9 3 8 12 12 20 9 8 -3 14 0 14 6 0 6 5 11 10 11 16 0
104 43 112 54 5 7 8 7 8 1 0 -5 7 -1 15 9 10 13 15 15 15 6 0 -9 5 -7 15 6 8
10 15 15 15 11 0 -5 7 -2 15 7 9 8 23 12 32 9 10 -4 14 -2 10 4 -4 6 4 14 18
17 14 4 25 11 25 16 0 5 7 7 15 4 8 -4 15 -1 15 5 0 6 8 11 18 11 10 0 28 9
40 21 12 11 27 17 32 14 6 -3 10 -1 10 5 0 6 5 8 10 5 6 -3 10 -2 10 2 0 5 9
14 21 21 12 8 18 9 14 3 -3 -6 -1 -11 4 -11 6 0 11 7 11 17 0 9 3 14 6 10 3
-3 22 3 41 14 19 11 39 17 44 13 5 -3 8 0 7 8 -2 8 8 14 25 16 15 2 25 8 22
13 -4 5 3 9 14 9 12 0 21 3 21 8 0 10 51 32 61 26 5 -3 9 0 9 5 0 6 6 11 14
11 8 0 17 7 20 16 5 14 9 14 23 3 9 -8 14 -9 10 -3 -6 11 19 29 36 26 4 -1 7
3 7 8 0 6 6 10 14 8 8 -2 22 6 31 17 9 11 14 13 10 5 -4 -8 1 -6 9 4 11 14 16
15 16 6 0 -9 4 -8 13 5 9 11 19 15 27 10 10 -6 12 -4 7 8 -4 11 -2 14 9 10 7
-3 14 0 14 6 0 6 7 8 15 5 8 -4 15 -1 15 5 0 6 9 11 20 11 10 0 24 9 30 19 6
12 18 18 30 16 11 -2 20 1 20 7 0 5 7 7 16 4 8 -3 12 -2 9 4 -3 6 1 10 10 10
9 0 13 4 10 10 -3 6 1 7 9 4 9 -4 16 -1 16 6 0 10 4 9 16 0 12 -11 15 -11 12
1 -2 8 7 15 20 17 13 2 20 8 16 14 -5 7 0 9 14 6 12 -4 20 -2 17 2 -10 16 30
31 44 17 10 -9 11 -8 5 7 -6 16 -4 18 9 13 12 -4 17 -1 17 10 0 13 3 13 16 3
12 -11 15 -11 12 -1 -2 8 6 15 17 17 11 1 21 8 23 14 2 5 8 8 13 4 5 -3 9 0 9
7 0 7 3 9 6 6 10 -9 46 12 39 23 -3 6 1 7 10 4 9 -4 24 1 34 10 10 9 21 13 24
9 4 -3 7 -1 7 6 0 7 4 10 9 6 5 -3 12 -1 16 5 4 6 11 7 17 4 7 -4 8 -2 4 4 -6
10 6 17 18 10 2 -2 13 5 23 15 11 9 23 14 26 10 4 -3 7 -1 7 6 0 8 7 11 15 7
10 -4 19 2 25 17 5 12 9 17 9 10 1 -7 8 -10 16 -7 8 4 12 10 9 15 -3 5 4 9 15
9 12 0 21 5 21 10 0 6 6 10 13 9 25 -3 38 1 32 12 -4 6 -1 10 6 8 27 -3 40 1
34 11 -3 6 3 10 14 10 12 0 21 5 21 11 0 6 7 9 15 5 8 -3 20 3 28 14 8 11 17
17 21 12 4 -4 6 0 4 8 -2 8 3 14 9 13 7 -2 12 0 12 5 -4 21 2 32 13 26 7 -5 9
-2 5 9 -3 9 -2 17 3 19 5 2 10 10 12 18 2 8 7 18 13 22 12 9 14 598 2 598 -5
0 -7 9 -4 20 3 11 1 20 -4 20 -5 0 -9 8 -9 18 0 10 -9 24 -20 32 -14 10 -16
16 -7 22 9 6 9 8 -1 8 -15 0 -44 25 -37 32 2 2 -6 5 -18 5 -12 1 -27 9 -33 18
-9 12 -13 13 -17 3 -4 -8 -6 -7 -6 5 -1 10 -9 17 -21 17 -11 0 -20 5 -20 11 0
5 -4 7 -10 4 -5 -3 -10 -1 -10 5 0 6 -4 8 -10 5 -5 -3 -10 -1 -10 4 0 6 -5 11
-11 11 -5 0 -7 -6 -4 -12 4 -7 -3 -3 -14 10 -11 13 -25 21 -31 17 -5 -3 -10 1
-10 11 0 13 -3 14 -15 4 -12 -10 -15 -9 -15 5 0 10 -5 15 -13 12 -8 -3 -20 3
-27 14 -10 13 -17 15 -27 7 -9 -7 -13 -7 -13 1 0 7 -5 9 -10 6 -6 -4 -10 -3
-9 2 1 4 1 15 0 23 -1 13 -2 13 -11 0 -9 -13 -10 -13 -10 0 0 13 -1 13 -10 0
-8 -13 -10 -12 -10 3 0 11 -8 17 -25 17 -14 0 -25 5 -25 10 0 6 -7 10 -15 10
-8 0 -15 5 -15 10 0 6 -9 10 -20 10 -11 0 -20 5 -20 10 0 6 -7 10 -15 10 -8 0
-15 4 -15 10 0 5 -7 7 -15 4 -8 -4 -15 -1 -15 6 0 6 -4 8 -10 5 -5 -3 -10 -2
-10 3 0 11 -57 36 -77 35 -7 0 -11 3 -8 7 6 9 -30 24 -65 29 -5 0 -10 7 -10
15 0 8 -9 12 -24 11 -18 -2 -23 1 -21 13 1 10 8 16 15 14 8 -2 10 3 6 13 -3 9
-2 13 4 10 13 -8 61 5 55 15 -8 13 22 19 34 7 9 -9 10 -8 5 7 -6 16 -4 18 9
13 9 -3 17 -3 17 1 0 4 9 13 21 20 12 8 18 9 15 3 -4 -7 -1 -8 8 -5 9 3 13 10
10 15 -5 8 9 13 29 10 4 0 7 4 7 10 0 5 5 7 10 4 6 -3 10 -1 10 5 0 6 5 8 10
5 6 -3 10 -1 10 5 0 6 4 9 9 6 4 -3 19 3 31 14 12 11 27 17 31 14 5 -3 9 0 9
6 0 6 4 9 9 5 6 -3 13 1 18 9 8 15 11 16 39 16 8 0 12 5 9 10 -3 6 -2 10 4 10
5 0 12 -6 14 -12 3 -8 6 -5 6 5 1 10 6 15 11 12 6 -3 10 -1 10 5 0 7 7 9 16 6
8 -3 12 -2 9 4 -6 9 8 14 28 11 4 0 7 4 7 10 0 5 5 7 10 4 6 -3 10 -1 10 6 0
6 8 9 20 6 11 -3 18 -1 15 3 -7 11 30 32 39 23 3 -3 6 -1 6 6 0 8 6 11 16 7 8
-3 12 -2 9 4 -5 9 1 12 21 9 3 0 12 8 21 18 8 10 11 12 8 5 -6 -11 -3 -11 16
0 30 16 39 29 32 42 -3 5 -1 6 5 2 7 -4 20 -2 29 3 14 8 15 11 3 11 -8 1 -5 5
9 11 16 6 21 14 17 25 -5 14 -4 15 8 5 13 -11 15 -9 11 8 -2 12 0 21 4 21 10
0 33 51 27 58 -3 2 -1 14 5 25 8 15 8 18 -1 12 -9 -6 -9 -2 0 15 9 18 9 24 0
30 -9 6 -9 13 0 31 10 17 10 24 1 27 -6 2 -11 8 -11 13 0 6 4 8 8 5 11 -6 10
37 0 45 -13 9 2 40 16 32 6 -4 3 4 -6 18 -16 24 -16 27 0 43 16 16 16 17 -1
10 -15 -6 -16 -3 -7 22 8 21 8 30 0 32 -8 3 -8 8 1 18 9 11 8 14 -2 14 -9 1
-8 5 5 15 17 13 17 15 3 15 -14 0 -15 4 -6 27 7 20 7 29 -1 31 -8 3 -8 8 1 18
9 11 9 14 0 14 -8 0 -9 5 -1 19 7 14 7 22 0 26 -6 4 -8 10 -5 15 3 5 0 12 -6
16 -8 5 -8 9 1 14 9 6 6 11 -10 20 -18 10 -20 14 -9 21 11 7 10 9 -5 9 -15 0
-16 3 -6 15 10 13 9 15 -10 15 -17 0 -21 4 -17 20 3 11 1 18 -3 15 -14 -9 -40
6 -40 24 0 14 -2 14 -10 1 -8 -12 -10 -12 -10 -1 0 8 -3 12 -6 8 -3 -3 -15 3
-27 13 -11 11 -24 17 -28 14 -4 -2 -10 0 -14 6 -4 6 -11 8 -16 5 -5 -4 -9 -1
-9 5 0 7 -7 10 -15 7 -8 -4 -17 -1 -21 5 -4 7 -3 8 4 4 7 -4 12 -5 12 -2 0 3
-10 10 -21 17 -17 8 -20 8 -14 -1 4 -7 -6 -3 -23 10 -18 13 -35 19 -43 15 -7
-5 -10 -4 -6 2 3 5 -9 16 -28 23 -19 7 -31 18 -28 23 3 6 2 7 -4 4 -6 -4 -18
0 -29 7 -10 8 -24 12 -31 9 -7 -3 -16 2 -19 12 -4 9 -13 14 -20 11 -8 -3 -14
1 -14 10 0 8 -4 13 -9 9 -5 -3 -33 8 -61 25 -28 16 -55 30 -61 30 -5 0 -26 11
-47 23 -20 13 -43 22 -51 19 -8 -3 -11 0 -7 6 3 6 2 13 -4 17 -5 3 -10 1 -10
-6 0 -7 -9 -2 -20 11 -11 13 -20 19 -20 15 0 -4 -10 0 -22 11 -12 10 -18 13
-13 5 5 -9 3 -12 -6 -9 -8 3 -13 11 -11 18 2 7 -3 10 -11 7 -8 -3 -23 2 -34
12 -10 10 -27 17 -37 15 -11 -2 -16 2 -12 11 3 9 0 12 -10 8 -7 -3 -14 0 -14
7 0 6 -4 8 -10 5 -5 -3 -10 -1 -10 4 0 6 -5 11 -11 11 -5 0 -7 -6 -4 -12 4 -7
-2 -3 -13 9 -11 12 -23 19 -27 15 -3 -4 -13 1 -20 12 -8 10 -19 15 -24 11 -6
-3 -14 0 -17 9 -3 8 -14 13 -25 11 -11 -2 -17 0 -14 5 3 5 -4 14 -16 20 -15 8
-19 9 -15 1 4 -6 2 -11 -3 -11 -6 0 -11 7 -11 15 0 13 -18 20 -42 16 -5 0 -8
4 -8 10 0 6 -7 8 -16 5 -14 -5 -15 -4 -5 8 10 12 8 14 -14 12 -14 -2 -28 1
-32 7 -4 6 -1 7 7 2 9 -5 11 -4 6 4 -4 6 -12 9 -17 5 -6 -3 -20 2 -31 13 -14
12 -18 13 -13 3 8 -13 7 -13 -11 0 -10 8 -22 19 -25 23 -3 5 -10 9 -15 10 -5
1 -8 6 -6 11 2 5 -3 4 -11 -3 -10 -7 -16 -8 -19 -2 -1 6 -13 12 -25 14 -12 2
-26 7 -30 12 -5 4 -1 5 7 1 8 -4 6 0 -4 8 -11 9 -28 16 -38 16 -10 0 -18 3
-18 8 0 4 -14 15 -31 24 -17 10 -27 12 -23 5 4 -6 -2 -4 -13 6 -11 9 -25 17
-31 17 -7 0 -12 4 -12 9 0 5 -8 8 -17 7 -11 0 -17 5 -15 13 2 9 -3 11 -14 7
-11 -4 -26 2 -42 16 -14 13 -22 17 -18 11 12 -21 -1 -15 -29 12 -14 15 -25 20
-25 13 0 -9 -3 -10 -8 -2 -7 11 -46 34 -57 34 -3 0 -3 -5 1 -12 4 -7 3 -8 -5
-4 -6 4 -9 11 -6 16 3 5 -6 12 -20 16 -14 3 -25 10 -25 15 0 5 -6 6 -14 3 -7
-3 -16 2 -20 11 -3 10 -12 15 -21 11 -8 -3 -15 -1 -15 4 0 6 -9 10 -20 10 -12
0 -20 7 -20 18 0 14 -2 15 -10 2 -6 -9 -10 -10 -10 -3 0 11 -37 29 -52 25 -5
-1 -8 5 -8 14 0 10 -6 14 -15 10 -8 -3 -21 2 -29 10 -9 8 -18 15 -21 14 -26
-1 -35 2 -30 10 3 6 -3 10 -15 10 -14 0 -19 4 -14 13 4 6 4 9 -1 5 -4 -4 -15
-2 -23 5 -13 10 -15 9 -8 -3 4 -8 0 -6 -9 5 -9 11 -23 19 -31 17 -8 -2 -14 2
-14 7 0 6 -6 8 -14 5 -7 -3 -16 2 -19 10 -4 9 -14 16 -22 16 -10 0 -13 5 -9
13 5 9 4 9 -6 0 -11 -10 -16 -9 -27 5 -10 12 -12 12 -8 2 4 -10 2 -9 -8 3 -8
9 -19 17 -26 17 -6 0 -11 4 -11 9 0 6 -9 8 -20 6 -13 -2 -20 2 -20 11 0 8 -4
13 -9 9 -5 -3 -12 -1 -16 5 -4 6 -11 8 -16 5 -5 -4 -9 -1 -9 5 0 7 -7 10 -15
6 -9 -3 -15 0 -15 9 0 9 -8 12 -20 10 -11 -2 -18 0 -15 4 4 7 -29 23 -38 18
-2 -1 -11 6 -21 16 -10 9 -22 15 -27 12 -5 -4 -9 -1 -9 4 0 6 -6 11 -14 11 -8
0 -17 6 -19 13 -4 9 -6 9 -6 -1 -1 -8 -8 -6 -23 8 -12 11 -29 20 -38 20 -9 0
-26 9 -37 19 -12 11 -23 18 -25 15 -3 -2 -13 5 -22 15 -10 11 -24 17 -32 14
-8 -3 -14 0 -14 7 0 6 -4 9 -9 5 -5 -3 -16 1 -24 9 -8 8 -17 12 -21 9 -3 -4
-6 -1 -6 5 0 6 -7 9 -17 5 -12 -5 -14 -3 -8 7 6 10 3 12 -13 8 -13 -4 -20 -2
-19 6 1 6 -4 10 -10 8 -7 -1 -13 3 -13 9 0 5 -4 7 -10 4 -5 -3 -10 -1 -10 5 0
6 -4 9 -9 5 -5 -3 -16 2 -25 11 -9 8 -21 12 -27 8 -7 -4 -9 -3 -6 3 4 6 0 14
-9 17 -9 3 -12 2 -8 -5 3 -6 -3 -5 -14 2 -12 7 -18 18 -15 24 4 5 2 7 -2 2 -5
-4 -19 0 -31 8 -17 11 -24 12 -27 2 -3 -7 -6 -6 -6 4 -1 9 -8 20 -17 23 -10 4
-13 2 -9 -7 4 -6 0 -4 -8 5 -8 10 -17 15 -20 11 -4 -3 -7 0 -7 7 0 7 -3 10 -7
7 -3 -4 -12 1 -20 11 -9 10 -11 11 -7 2 7 -12 5 -13 -8 -3 -8 7 -19 9 -23 5
-5 -4 -5 -1 -1 6 4 6 2 13 -3 13 -6 1 -15 3 -21 4 -5 1 -15 3 -21 4 -5 0 -7 5
-4 11 3 5 0 7 -8 4 -9 -3 -26 7 -41 22 -14 16 -28 25 -32 21 -4 -4 -14 -1 -22
6 -13 10 -14 9 -7 -2 6 -11 5 -12 -6 -5 -18 11 -119 13 -119 1z"/>
<path d="M4215 7080 c-3 -5 -1 -10 4 -10 6 0 11 5 11 10 0 6 -2 10 -4 10 -3 0
-8 -4 -11 -10z"/>
</g>
</svg>
